<?xml version="1.0" standalone="no"?>
<!DOCTYPE svg PUBLIC "-//W3C//DTD SVG 20010904//EN"
 "http://www.w3.org/TR/2001/REC-SVG-20010904/DTD/svg10.dtd">
<svg version="1.0" xmlns="http://www.w3.org/2000/svg"
 width="1024.000000pt" height="1024.000000pt" viewBox="0 0 1024.000000 1024.000000"
 preserveAspectRatio="xMidYMid meet">

<g transform="translate(0.000000,1024.000000) scale(0.100000,-0.100000)"
fill="#000000" stroke="none">
<path d="M4740 8784 c-358 -36 -781 -141 -1060 -264 -263 -116 -569 -298 -764
-454 -223 -180 -506 -471 -658 -676 -164 -223 -233 -330 -323 -505 -202 -393
-330 -798 -365 -1160 -16 -167 -13 -1148 5 -1295 17 -149 96 -472 160 -660
176 -514 555 -1075 975 -1444 437 -384 839 -606 1367 -756 402 -114 770 -161
1163 -146 817 30 1533 286 2155 770 136 105 397 359 500 484 135 165 320 440
413 612 101 189 232 523 277 711 48 200 86 413 95 536 13 179 13 1034 0 1183
-38 432 -202 926 -443 1330 -67 114 -219 330 -277 394 -25 28 -79 91 -119 140
-272 327 -666 633 -1077 840 -355 177 -702 283 -1139 347 -188 28 -670 35
-885 13z m784 -310 c495 -55 993 -229 1393 -485 101 -65 111 -72 278 -204 261
-207 557 -537 738 -825 235 -374 382 -785 426 -1192 17 -150 14 -1155 -4
-1298 -29 -243 -105 -549 -190 -765 -100 -255 -268 -546 -444 -765 -184 -230
-506 -525 -723 -663 -452 -288 -986 -471 -1538 -528 -186 -20 -606 -17 -760 5
-256 36 -443 81 -705 169 -691 234 -1215 649 -1648 1305 -81 122 -179 307
-243 458 -91 215 -190 552 -214 731 -40 301 -38 1132 5 1413 56 371 199 756
408 1100 112 183 338 467 513 645 274 276 601 498 964 653 293 125 694 223
1025 251 178 15 566 12 719 -5z"/>
<path d="M3379 7589 c-62 -12 -112 -40 -169 -98 -67 -67 -104 -133 -119 -216
-15 -79 -16 -4228 -1 -4306 6 -30 22 -78 37 -107 33 -65 150 -179 219 -213
l49 -24 1740 0 1740 0 66 32 c88 44 168 129 217 230 l37 78 0 2160 0 2160 -29
63 c-35 76 -137 176 -221 217 l-57 28 -1737 1 c-956 1 -1753 -2 -1772 -5z
m3462 -338 l29 -29 2 -2064 c1 -1135 0 -2078 -1 -2097 -4 -51 -28 -91 -66
-107 -29 -12 -280 -14 -1677 -14 -1473 0 -1646 2 -1666 16 -55 39 -52 -105
-52 2169 l0 2097 29 29 29 29 1672 0 1672 0 29 -29z"/>
<path d="M3983 6920 c-156 -4 -185 -8 -200 -23 -16 -16 -17 -63 -18 -692 0
-589 2 -676 15 -689 13 -14 103 -16 697 -18 671 -3 683 -3 702 17 20 20 20 36
22 694 1 667 1 675 -19 691 -17 14 -62 18 -293 23 -289 7 -607 6 -906 -3z
m891 -717 l6 -403 -389 -2 -388 -3 -6 185 c-4 102 -7 285 -7 408 l0 223 389
-3 389 -3 6 -402z"/>
<path d="M5933 6635 c-97 -26 -186 -79 -247 -147 -183 -202 -180 -490 8 -693
66 -71 145 -117 249 -145 74 -20 91 -21 167 -12 202 25 338 117 420 286 98
200 65 421 -85 571 -67 67 -152 117 -240 140 -73 19 -202 18 -272 0z m196
-315 c110 -51 157 -180 96 -271 -34 -53 -108 -99 -156 -99 -49 0 -126 52 -156
105 -26 46 -30 110 -9 158 19 43 75 96 122 112 50 18 51 18 103 -5z"/>
<path d="M3945 4970 c-87 -44 -89 -228 -2 -285 21 -14 145 -15 1190 -13 l1165
3 25 23 c47 44 60 138 28 209 -37 80 69 73 -1222 76 -1009 2 -1158 0 -1184
-13z"/>
<path d="M3975 4311 c-57 -11 -95 -74 -95 -158 0 -58 33 -129 69 -146 21 -10
263 -13 1182 -13 1142 1 1157 1 1179 21 78 69 79 219 2 273 l-30 22 -1144 2
c-630 2 -1153 1 -1163 -1z"/>
<path d="M3980 3661 c-40 -5 -79 -39 -90 -79 -15 -56 -12 -122 9 -167 34 -76
-75 -70 1215 -71 1292 -1 1199 -6 1237 68 23 45 25 137 5 176 -8 15 -24 36
-36 47 -22 20 -40 20 -1169 25 -630 3 -1157 3 -1171 1z"/>
<path d="M27 103 c-25 -4 -27 -8 -27 -54 0 -48 1 -49 30 -49 30 0 30 1 30 55
0 30 -1 54 -2 54 -2 -1 -15 -4 -31 -6z"/>
</g>
</svg>
